# xmcd CD database file
#
# Track frame offsets:
#	182
#	27862
#	57587
#	87550
#	114510
#	144252
#	163720
#	193165
#	214245
#	235810
#	262195
#
# Disc length: 3918 seconds
#
# Revision: 0
# Processed by: cddbd v1.5.2PL0 Copyright (c) Steve Scherf et al.
# Submitted via: CDex 1.51
#
DISCID=a30f4c0b
DTITLE=Phil Woods and Space Jazz Trio - Phil's Mood
DYEAR=1988
DGENRE=Jazz
TTITLE0=New Lands (II)
TTITLE1=Night Bird
TTITLE2=Chet
TTITLE3=Phil's Mood
TTITLE4=Blue Ballad
TTITLE5=Upstairs (II)
TTITLE6=Hindsight
TTITLE7=New Lands
TTITLE8=Upstairs
TTITLE9=New Lands (III)
TTITLE10=Night Bird (II)
EXTD=YEAR: 1988
EXTT0=
EXTT1=
EXTT2=
EXTT3=
EXTT4=
EXTT5=
EXTT6=
EXTT7=
EXTT8=
EXTT9=
EXTT10=
PLAYORDER=
